static_grf.mot
version=1
nRows=22
nColumns 19
inDegrees=yes
endheader
time	1_ground_force_vx	1_ground_force_vy	1_ground_force_vz	1_ground_force_px	1_ground_force_py	1_ground_force_pz	1_ground_torque_x	1_ground_torque_y	1_ground_torque_z	2_ground_force_vx	2_ground_force_vy	2_ground_force_vz	2_ground_force_px	2_ground_force_py	2_ground_force_pz	2_ground_torque_x	2_ground_torque_y	2_ground_torque_z
            1.002500	           -3.781018	          419.440386	          -31.576205	           -0.283690	            0.006014	           -0.358795	           -0.024112	            2.674793	           -0.201363	            0.922185	          435.251782	           25.063211	           -0.294685	            0.005445	           -0.704837	           -0.000883	           -0.416929	           -0.024008
            1.003000	           -3.826795	          419.079846	          -31.577637	           -0.283473	            0.006013	           -0.358437	           -0.024158	            2.645637	           -0.199349	            0.687394	          435.434073	           25.345537	           -0.294575	            0.005447	           -0.705150	           -0.000618	           -0.391557	           -0.022792
            1.003500	           -3.689266	          419.079873	          -31.577979	           -0.283542	            0.006013	           -0.358391	           -0.023600	            2.680839	           -0.202003	            0.829979	          434.881762	           25.437362	           -0.294741	            0.005445	           -0.704901	           -0.000747	           -0.391657	           -0.022909
            1.004000	           -3.826534	          418.899218	          -31.486698	           -0.283980	            0.006013	           -0.358472	           -0.024616	            2.694777	           -0.202554	            0.643867	          434.513139	           25.342271	           -0.294968	            0.005445	           -0.704921	           -0.000572	           -0.385938	           -0.022509
            1.004500	           -3.688955	          417.998082	          -31.536764	           -0.283539	            0.006014	           -0.358654	           -0.023548	            2.668256	           -0.201312	            0.922952	          435.066744	           25.297195	           -0.294797	            0.005446	           -0.705215	           -0.000899	           -0.423838	           -0.024644
            1.005000	           -3.643684	          419.260571	          -31.669031	           -0.283513	            0.006012	           -0.358355	           -0.023372	            2.689346	           -0.203141	            0.920938	          435.619394	           25.252238	           -0.294892	            0.005445	           -0.704989	           -0.000876	           -0.414266	           -0.024014
            1.005500	           -4.009825	          419.079221	          -31.439618	           -0.283595	            0.006013	           -0.358424	           -0.024751	            2.586848	           -0.194067	            0.872697	          435.988008	           25.112788	           -0.294799	            0.005447	           -0.705399	           -0.000793	           -0.396221	           -0.022822
            1.006000	           -3.781132	          419.440583	          -31.622065	           -0.283591	            0.006011	           -0.358129	           -0.024459	            2.713239	           -0.204554	            1.063522	          435.067084	           25.344063	           -0.294665	            0.005447	           -0.705172	           -0.001080	           -0.441784	           -0.025735
            1.006500	           -4.101820	          418.899558	          -31.577728	           -0.283398	            0.006014	           -0.358619	           -0.025414	            2.595416	           -0.195649	            0.784314	          434.514484	           25.107571	           -0.294837	            0.005445	           -0.704921	           -0.000714	           -0.395682	           -0.022864
            1.007000	           -3.735028	          419.259963	          -31.531240	           -0.283750	            0.006013	           -0.358476	           -0.023879	            2.680428	           -0.201587	            0.642476	          434.881923	           25.202801	           -0.294916	            0.005445	           -0.704857	           -0.000556	           -0.376033	           -0.021792
            1.007500	           -3.735435	          419.621084	          -31.667258	           -0.283217	            0.006012	           -0.358223	           -0.023608	            2.651958	           -0.200134	            0.358156	          435.800835	           25.440846	           -0.294826	            0.005447	           -0.705430	           -0.000320	           -0.389064	           -0.022712
            1.008000	           -3.918595	          419.080025	          -31.623270	           -0.283428	            0.006013	           -0.358444	           -0.025175	            2.692390	           -0.203164	            0.642558	          434.881253	           25.390513	           -0.294700	            0.005446	           -0.704986	           -0.000551	           -0.372892	           -0.021771
            1.008500	           -3.872800	          418.719699	          -31.670781	           -0.283471	            0.006013	           -0.358581	           -0.024634	            2.663378	           -0.201450	            0.781094	          435.434411	           25.345497	           -0.294918	            0.005446	           -0.705237	           -0.000755	           -0.420991	           -0.024505
            1.009000	           -3.873141	          418.720289	          -31.808353	           -0.283432	            0.006013	           -0.358505	           -0.024263	            2.623017	           -0.199259	            0.499330	          435.617537	           25.346273	           -0.294636	            0.005447	           -0.705376	           -0.000444	           -0.387362	           -0.022539
            1.009500	           -3.918382	          418.539062	          -31.579729	           -0.283551	            0.006013	           -0.358437	           -0.024531	            2.620268	           -0.197705	            0.968370	          435.436092	           25.063849	           -0.294789	            0.005446	           -0.705108	           -0.000924	           -0.415265	           -0.023903
            1.010000	           -3.918790	          418.900183	          -31.715754	           -0.283276	            0.006013	           -0.358587	           -0.024831	            2.654360	           -0.200967	            0.971070	          434.699133	           25.155076	           -0.295115	            0.005444	           -0.704976	           -0.000874	           -0.391342	           -0.022646
            1.010500	           -3.872440	          417.998243	          -31.582161	           -0.283694	            0.006013	           -0.358436	           -0.024620	            2.657519	           -0.200791	            0.827882	          435.435082	           25.204693	           -0.294749	            0.005447	           -0.705236	           -0.000734	           -0.385851	           -0.022335
            1.011000	           -4.239885	          418.720218	          -31.807443	           -0.283549	            0.006013	           -0.358511	           -0.027058	            2.672168	           -0.202987	            0.690655	          434.513810	           25.201467	           -0.294924	            0.005445	           -0.704878	           -0.000623	           -0.391652	           -0.022716
            1.011500	           -4.010395	          419.080204	          -31.668894	           -0.283583	            0.006012	           -0.358269	           -0.025133	            2.626360	           -0.198468	            0.966479	          435.987677	           25.300460	           -0.294580	            0.005448	           -0.705400	           -0.000919	           -0.414776	           -0.024070
            1.012000	           -3.872246	          418.178146	          -31.489676	           -0.283629	            0.006013	           -0.358562	           -0.024626	            2.659493	           -0.200265	            0.781676	          435.250940	           25.157127	           -0.294863	            0.005446	           -0.705225	           -0.000682	           -0.379618	           -0.021942
            1.012500	           -3.873141	          418.720289	          -31.808353	           -0.283428	            0.006013	           -0.358461	           -0.024434	            2.641556	           -0.200667	            0.638571	          435.986158	           25.394456	           -0.294712	            0.005448	           -0.705614	           -0.000586	           -0.400134	           -0.023306
            1.013000	           -3.965169	          418.720861	          -31.945689	           -0.283613	            0.006014	           -0.358700	           -0.025128	            2.653527	           -0.202447	            0.550064	          434.513638	           25.107671	           -0.294793	            0.005446	           -0.705180	           -0.000509	           -0.401753	           -0.023215
